<svg height="490pt" viewBox="-24 0 490 490" width="490pt" xmlns="http://www.w3.org/2000/svg"><path d="m7 309h88c3.867188 0 7-3.132812 7-7v-115c0-3.867188-3.132812-7-7-7h-45v-18h128v18h-37c-3.867188 0-7 3.132812-7 7v115c0 3.867188 3.132812 7 7 7h88c3.867188 0 7-3.132812 7-7v-115c0-3.867188-3.132812-7-7-7h-37v-18h128v18h-45c-3.867188 0-7 3.132812-7 7v115c0 3.867188 3.132812 7 7 7h39v13h-62.867188c-3.953124.144531-7.097656 3.375-7.132812 7.332031v31.667969h-37c-3.867188 0-7 3.132812-7 7v115c0 3.867188 3.132812 7 7 7h88c3.867188 0 7-3.132812 7-7v-115c0-3.867188-3.132812-7-7-7h-37v-25h126v25h-37c-3.867188 0-7 3.132812-7 7v115c0 3.867188 3.132812 7 7 7h88c3.867188 0 7-3.132812 7-7v-115c0-3.867188-3.132812-7-7-7h-37v-31.667969c-.066406-3.96875-3.230469-7.191406-7.199219-7.332031h-62.800781v-13h35c3.867188 0 7-3.132812 7-7v-115c0-3.867188-3.132812-7-7-7h-29v-25c-.160156-3.929688-3.410156-7.027344-7.34375-7h-134.65625v-19h37c3.867188 0 7-3.132812 7-7v-115c0-3.867188-3.132812-7-7-7h-88c-3.867188 0-7 3.132812-7 7v115c0 3.867188 3.132812 7 7 7h37v19h-134.675781c-3.929688-.023438-7.171875 3.074219-7.324219 7v25h-29c-3.867188 0-7 3.132812-7 7v115c0 3.867188 3.132812 7 7 7zm264.917969 158h-41.566407c-3.867187 0-7-3.132812-7-7s3.132813-7 7-7h41.566407c3.863281 0 7 3.132812 7 7s-3.136719 7-7 7zm0-23h-41.566407c-3.867187 0-7-3.132812-7-7s3.132813-7 7-7h41.566407c3.863281 0 7 3.132812 7 7s-3.136719 7-7 7zm0-23h-41.566407c-3.867187 0-7-3.132812-7-7s3.132813-7 7-7h41.566407c3.863281 0 7 3.132812 7 7s-3.136719 7-7 7zm0-37c3.863281 0 7 3.132812 7 7s-3.136719 7-7 7h-41.566407c-3.867187 0-7-3.132812-7-7s3.132813-7 7-7zm140 83h-41.566407c-3.867187 0-7-3.132812-7-7s3.132813-7 7-7h41.566407c3.863281 0 7 3.132812 7 7s-3.136719 7-7 7zm0-23h-41.566407c-3.867187 0-7-3.132812-7-7s3.132813-7 7-7h41.566407c3.863281 0 7 3.132812 7 7s-3.136719 7-7 7zm0-23h-41.566407c-3.867187 0-7-3.132812-7-7s3.132813-7 7-7h41.566407c3.863281 0 7 3.132812 7 7s-3.136719 7-7 7zm0-37c3.863281 0 7 3.132812 7 7s-3.136719 7-7 7h-41.566407c-3.867187 0-7-3.132812-7-7s3.132813-7 7-7zm-72.019531-98h-41.5625c-3.867188 0-7-3.132812-7-7s3.132812-7 7-7h41.5625c3.867187 0 7 3.132812 7 7s-3.132813 7-7 7zm0-23h-41.5625c-3.867188 0-7-3.132812-7-7s3.132812-7 7-7h41.5625c3.867187 0 7 3.132812 7 7s-3.132813 7-7 7zm0-23h-41.5625c-3.867188 0-7-3.132812-7-7s3.132812-7 7-7h41.5625c3.867187 0 7 3.132812 7 7s-3.132813 7-7 7zm0-37c3.867187 0 7 3.132812 7 7s-3.132813 7-7 7h-41.5625c-3.867188 0-7-3.132812-7-7s3.132812-7 7-7zm-134.125 83h-41.566407c-3.863281 0-7-3.132812-7-7s3.136719-7 7-7h41.566407c3.867187 0 7 3.132812 7 7s-3.132813 7-7 7zm0-23h-41.566407c-3.863281 0-7-3.132812-7-7s3.136719-7 7-7h41.566407c3.867187 0 7 3.132812 7 7s-3.132813 7-7 7zm0-23h-41.566407c-3.863281 0-7-3.132812-7-7s3.136719-7 7-7h41.566407c3.867187 0 7 3.132812 7 7s-3.132813 7-7 7zm-41.566407-217h41.566407c3.867187 0 7 3.132812 7 7s-3.132813 7-7 7h-41.566407c-3.863281 0-7-3.132812-7-7s3.136719-7 7-7zm0 23h41.566407c3.867187 0 7 3.132812 7 7s-3.132813 7-7 7h-41.566407c-3.863281 0-7-3.132812-7-7s3.136719-7 7-7zm0 23h41.566407c3.867187 0 7 3.132812 7 7s-3.132813 7-7 7h-41.566407c-3.863281 0-7-3.132812-7-7s3.136719-7 7-7zm0 37c-3.863281 0-7-3.132812-7-7s3.136719-7 7-7h41.566407c3.867187 0 7 3.132812 7 7s-3.132813 7-7 7zm41.566407 97c3.867187 0 7 3.132812 7 7s-3.132813 7-7 7h-41.566407c-3.863281 0-7-3.132812-7-7s3.136719-7 7-7zm-175.691407 0h41.566407c3.867187 0 7 3.132812 7 7s-3.132813 7-7 7h-41.566407c-3.863281 0-7-3.132812-7-7s3.136719-7 7-7zm0 23h41.566407c3.867187 0 7 3.132812 7 7s-3.132813 7-7 7h-41.566407c-3.863281 0-7-3.132812-7-7s3.136719-7 7-7zm0 23h41.566407c3.867187 0 7 3.132812 7 7s-3.132813 7-7 7h-41.566407c-3.863281 0-7-3.132812-7-7s3.136719-7 7-7zm0 23h41.566407c3.867187 0 7 3.132812 7 7s-3.132813 7-7 7h-41.566407c-3.863281 0-7-3.132812-7-7s3.136719-7 7-7zm0 0"/></svg>