<svg id="Capa_1" enable-background="new 0 0 520 520" height="512" viewBox="0 0 520 520" width="512" xmlns="http://www.w3.org/2000/svg"><g><path d="m302.426 248.86c-12.02 0-23.319 4.681-31.819 13.18-5.857 5.858-15.355 5.858-21.213 0-8.5-8.5-19.8-13.18-31.82-13.18s-23.321 4.681-31.82 13.18c-8.499 8.5-13.18 19.8-13.18 31.82s4.681 23.32 13.18 31.82l74.246 74.246 74.246-74.246c8.499-8.5 13.18-19.8 13.18-31.82s-4.681-23.32-13.18-31.819c-8.5-8.5-19.8-13.181-31.82-13.181z"/><path d="m475 125.016h-206.597l-56.861-92.85c-2.727-4.452-7.571-7.166-12.792-7.166h-153.75c-24.813 0-45 20.187-45 45v380c0 24.813 20.187 45 45 45h430c24.813 0 45-20.187 45-45v-279.984c0-24.813-20.187-45-45-45zm-119.541 221.878-84.853 84.853c-2.813 2.813-6.628 4.394-10.606 4.394s-7.793-1.581-10.606-4.394l-84.853-84.853c-29.243-29.242-29.243-76.823 0-106.065 25.924-25.925 66.263-28.865 95.459-8.823 29.196-20.043 69.535-17.101 95.459 8.823 14.166 14.165 21.967 33 21.967 53.033s-7.801 38.866-21.967 53.032z"/><path d="m475 95.016v-5.016c0-24.813-20.187-45-45-45h-175.42l30.63 50.016z"/></g></svg>